<?xml version="1.0" standalone="no"?>
<!DOCTYPE svg PUBLIC "-//W3C//DTD SVG 20010904//EN"
 "http://www.w3.org/TR/2001/REC-SVG-20010904/DTD/svg10.dtd">
<svg version="1.0" xmlns="http://www.w3.org/2000/svg"
 width="786.000000pt" height="786.000000pt" viewBox="0 0 786.000000 786.000000"
 preserveAspectRatio="xMidYMid meet">
<metadata>
Created by potrace 1.14, written by Peter Selinger 2001-2017
</metadata>
<g transform="translate(0.000000,786.000000) scale(0.100000,-0.100000)"
fill="#000000" stroke="none">
<path d="M3669 7846 c-2 -2 -44 -7 -94 -10 -49 -4 -103 -9 -120 -11 -29 -4
-44 -7 -150 -21 -27 -3 -58 -10 -67 -15 -10 -6 -18 -7 -18 -5 0 3 -12 1 -26
-4 -21 -9 -106 -28 -199 -46 -11 -2 -44 -9 -72 -15 -29 -5 -56 -11 -60 -11 -5
-1 -37 -13 -73 -28 -53 -22 -102 -36 -220 -65 -3 -1 -18 -7 -33 -13 -16 -7
-30 -12 -33 -12 -3 0 -34 -13 -69 -30 -35 -16 -88 -39 -117 -50 -142 -53 -676
-363 -755 -438 -15 -15 -57 -49 -93 -77 -36 -27 -155 -139 -265 -250 -319
-319 -372 -382 -506 -591 -56 -87 -116 -180 -135 -205 -44 -60 -220 -414 -249
-499 -1 -3 -7 -18 -13 -33 -7 -16 -12 -30 -12 -32 0 -3 -11 -29 -25 -59 -14
-30 -26 -63 -28 -73 -2 -10 -7 -25 -10 -33 -10 -26 -45 -151 -77 -280 -33
-129 -35 -137 -45 -205 -3 -22 -7 -47 -10 -55 -2 -8 -7 -31 -9 -50 -3 -19 -7
-52 -10 -72 -3 -21 -8 -53 -11 -70 -3 -18 -7 -44 -9 -58 -5 -29 -15 -106 -22
-165 -2 -22 -6 -49 -9 -60 -20 -97 -25 -270 -11 -435 13 -153 23 -262 31 -330
2 -19 6 -62 10 -94 3 -33 8 -73 10 -90 3 -17 7 -51 10 -76 8 -69 15 -103 25
-115 5 -6 11 -25 14 -43 4 -18 8 -44 11 -60 2 -15 14 -54 25 -87 48 -138 82
-241 85 -250 4 -20 17 -53 62 -155 25 -58 56 -134 68 -168 13 -35 47 -105 76
-155 29 -51 75 -137 103 -192 56 -108 124 -214 204 -313 28 -35 54 -73 58 -85
4 -12 10 -24 13 -27 4 -3 14 -15 23 -28 19 -28 172 -193 368 -395 151 -157
236 -231 251 -221 5 3 9 0 9 -5 0 -6 5 -11 12 -11 6 0 49 -28 96 -61 380 -277
794 -502 1033 -564 35 -9 71 -23 79 -30 20 -17 48 -25 111 -30 64 -5 96 -14
210 -54 47 -17 110 -33 140 -36 30 -3 71 -8 91 -10 20 -2 65 -11 100 -19 102
-24 206 -33 488 -42 351 -11 382 -10 530 16 30 5 69 12 85 15 17 2 41 7 55 10
14 3 39 7 55 10 227 32 247 36 365 72 173 52 305 96 318 106 6 5 12 7 12 4 0
-8 279 107 386 159 132 64 401 211 459 251 28 18 96 66 151 106 89 63 121 88
218 170 129 109 329 308 446 443 90 103 296 381 330 446 17 32 39 63 49 70 32
23 124 187 197 353 20 44 45 100 56 124 10 24 28 65 38 92 11 26 37 84 60 127
36 72 67 172 145 470 22 86 33 173 50 407 2 28 7 88 12 135 10 102 10 589 0
750 -15 235 -21 286 -46 360 -11 30 -22 83 -26 118 -7 67 -33 181 -64 277 -15
49 -36 100 -73 183 -15 35 -28 66 -28 68 0 7 -194 396 -249 499 -24 44 -68
117 -100 163 -31 46 -65 98 -76 116 -28 45 -84 122 -184 251 -85 110 -212 242
-372 386 -85 77 -148 131 -260 224 -94 77 -200 156 -248 185 -23 14 -97 61
-164 104 -165 107 -235 142 -542 266 -99 40 -194 79 -211 86 -17 8 -40 15 -50
17 -11 2 -26 7 -34 10 -14 5 -91 27 -115 33 -5 1 -30 7 -55 14 -25 7 -52 14
-60 15 -261 57 -446 87 -623 101 -74 6 -593 15 -598 10z m661 -221 c46 -7 66
-10 135 -20 22 -3 51 -7 65 -10 14 -3 43 -8 65 -11 37 -5 203 -38 249 -49 11
-2 128 -41 260 -85 182 -61 280 -101 399 -161 87 -44 182 -89 211 -99 29 -11
61 -28 72 -38 10 -9 49 -31 86 -49 39 -19 77 -46 90 -64 13 -17 49 -44 80 -59
56 -28 152 -100 234 -177 125 -116 244 -217 244 -208 0 4 25 -17 56 -47 69
-66 188 -213 242 -298 22 -36 62 -82 87 -104 26 -21 52 -50 58 -65 6 -14 22
-37 35 -51 13 -13 32 -43 43 -66 10 -23 30 -51 44 -62 14 -11 32 -37 41 -59
26 -66 118 -243 135 -262 10 -10 24 -46 33 -81 9 -34 29 -85 44 -114 42 -76
92 -194 92 -214 0 -9 11 -37 24 -62 27 -52 53 -129 60 -181 3 -20 17 -67 30
-105 29 -81 33 -100 42 -219 3 -49 8 -99 10 -110 3 -11 9 -42 14 -70 6 -27 12
-59 15 -70 28 -129 31 -161 29 -319 -2 -158 -5 -204 -19 -386 -6 -80 -15 -177
-20 -210 -18 -123 -22 -146 -39 -199 -8 -25 -22 -89 -31 -141 -31 -185 -87
-387 -142 -509 -13 -31 -35 -87 -48 -124 -13 -38 -30 -76 -38 -85 -8 -10 -17
-33 -20 -52 -3 -20 -20 -60 -37 -90 -30 -51 -67 -115 -94 -165 -6 -11 -13 -22
-16 -25 -18 -18 -70 -100 -70 -111 0 -18 -44 -92 -114 -189 -33 -47 -63 -87
-66 -90 -3 -3 -24 -30 -47 -60 -50 -65 -65 -82 -174 -202 -129 -140 -208 -218
-223 -218 -8 0 -33 -24 -57 -53 -24 -29 -64 -70 -89 -90 -25 -20 -79 -64 -120
-97 -41 -34 -104 -76 -140 -95 -36 -18 -90 -50 -120 -70 -136 -92 -369 -225
-396 -225 -12 0 -97 -42 -142 -71 -25 -16 -64 -34 -86 -40 -21 -6 -62 -21 -90
-34 -28 -13 -78 -31 -111 -39 -34 -9 -94 -26 -135 -40 -41 -13 -97 -27 -124
-30 -27 -4 -61 -13 -75 -20 -26 -13 -71 -23 -134 -31 -17 -2 -61 -7 -97 -11
-36 -4 -75 -8 -87 -10 -12 -1 -26 -5 -31 -8 -27 -17 -188 -24 -537 -25 -265
-1 -337 1 -422 13 -24 3 -62 8 -85 11 -37 5 -172 27 -248 40 -14 3 -45 8 -70
11 -25 3 -67 17 -95 29 -54 25 -120 45 -173 51 -18 2 -56 17 -85 33 -29 16
-90 41 -137 56 -178 55 -334 124 -470 208 -36 22 -74 45 -85 51 -11 6 -39 24
-62 39 -24 15 -47 27 -52 27 -5 0 -14 7 -21 15 -7 8 -20 15 -30 15 -9 0 -33
18 -53 40 -19 22 -42 40 -50 40 -21 0 -119 75 -197 149 -36 34 -81 69 -101 78
-19 9 -45 31 -56 48 -12 18 -66 72 -120 121 -55 49 -112 108 -128 132 -15 24
-42 59 -59 77 -45 48 -67 74 -108 130 -20 28 -59 72 -87 98 -28 27 -51 57 -51
68 0 11 -12 31 -26 45 -14 15 -36 51 -50 82 -14 31 -35 70 -48 86 -29 39 -66
111 -66 130 0 8 -11 23 -25 33 -17 12 -30 37 -40 72 -7 29 -26 72 -42 95 -43
64 -52 83 -95 201 -21 61 -54 144 -73 185 -30 67 -50 127 -61 185 -2 11 -6 31
-8 45 -3 14 -8 50 -11 81 -3 31 -8 67 -11 80 -3 13 -9 47 -14 74 -5 28 -12 61
-15 75 -6 28 -14 85 -20 145 -2 22 -7 67 -11 100 -12 108 -14 157 -18 435 -2
151 0 300 5 330 10 61 16 117 24 230 3 41 12 91 20 110 24 63 28 75 26 83 0 4
3 16 8 25 5 9 11 33 15 52 3 19 12 63 21 97 9 35 18 71 20 80 15 78 97 328
134 408 15 33 36 85 46 115 22 69 51 125 120 240 30 50 55 95 55 100 0 6 4 10
10 10 5 0 9 3 8 8 -4 15 128 235 152 252 4 3 13 16 20 29 7 14 17 30 21 35 5
6 32 47 61 91 49 77 130 161 385 405 54 52 124 116 154 142 30 26 65 57 79 69
207 179 635 425 955 548 61 24 119 47 130 51 74 32 561 170 616 176 22 2 58 6
82 9 23 3 107 8 187 11 80 3 146 7 147 8 6 5 584 -3 623 -9z"/>
<path d="M3907 7564 c-1 -1 -92 -4 -202 -8 -110 -3 -213 -8 -230 -10 -55 -7
-120 -17 -135 -21 -8 -2 -31 -7 -50 -10 -31 -5 -72 -14 -145 -31 -11 -3 -31
-7 -45 -10 -14 -3 -43 -10 -65 -16 -22 -5 -48 -12 -57 -14 -10 -2 -26 -6 -35
-8 -30 -7 -137 -37 -153 -43 -8 -3 -19 -7 -25 -9 -62 -15 -308 -117 -325 -134
-11 -11 -97 -49 -135 -59 -22 -6 -58 -26 -79 -46 -22 -19 -46 -35 -54 -35 -14
0 -123 -53 -182 -89 -19 -11 -42 -24 -50 -28 -18 -8 -79 -52 -100 -72 -8 -8
-33 -22 -55 -32 -22 -10 -57 -34 -77 -53 -20 -18 -63 -52 -95 -75 -102 -71
-457 -452 -616 -660 -32 -42 -63 -77 -68 -79 -5 -2 -9 -8 -9 -14 0 -5 -11 -24
-25 -42 -13 -18 -32 -52 -40 -76 -9 -25 -24 -54 -34 -65 -25 -27 -215 -369
-252 -453 -16 -37 -36 -78 -43 -92 -7 -14 -12 -36 -10 -49 3 -13 -9 -58 -25
-100 -35 -89 -43 -112 -47 -128 -1 -7 -12 -45 -23 -85 -69 -237 -79 -282 -85
-403 -2 -39 -9 -88 -15 -110 -15 -58 -24 -195 -24 -400 -1 -173 9 -473 17
-525 2 -14 7 -52 11 -85 4 -33 9 -63 11 -66 2 -4 6 -27 9 -50 7 -55 29 -140
62 -244 14 -44 27 -89 28 -100 5 -38 55 -218 64 -229 8 -11 18 -46 28 -96 2
-14 24 -59 49 -101 25 -43 44 -81 42 -85 -1 -5 10 -30 25 -55 15 -25 36 -71
46 -102 11 -31 42 -94 70 -142 28 -47 51 -90 51 -95 0 -6 3 -10 8 -10 4 0 13
-12 20 -28 7 -15 29 -45 49 -67 37 -40 143 -197 143 -211 0 -25 379 -416 499
-514 30 -25 63 -53 73 -63 37 -35 255 -196 353 -260 176 -114 266 -164 537
-291 32 -15 109 -45 170 -66 62 -21 138 -48 168 -59 63 -22 193 -58 260 -71
25 -5 75 -15 111 -23 112 -26 150 -32 254 -42 28 -2 73 -7 100 -9 28 -3 82 -8
120 -10 39 -3 88 -8 110 -12 72 -13 393 -6 535 11 19 3 53 7 75 9 22 3 49 7
60 9 11 3 40 8 65 12 25 4 54 9 65 11 11 2 34 6 50 9 17 3 44 8 60 12 17 3 39
7 50 9 11 1 20 3 20 4 0 1 8 3 19 5 10 2 39 9 65 15 25 6 55 12 66 14 11 2 47
15 80 27 33 13 62 24 65 24 3 1 12 4 20 7 8 3 56 21 105 38 50 18 99 39 111
47 12 7 68 32 125 54 105 41 153 65 312 158 48 28 91 51 95 51 4 0 22 14 41
30 18 17 54 41 79 54 91 46 266 180 375 289 26 26 50 47 53 47 15 0 214 194
274 269 19 23 44 53 55 65 20 22 48 59 89 115 12 16 56 75 99 132 103 138 86
113 183 274 80 132 177 320 222 430 29 71 136 383 148 428 10 40 13 55 27 122
9 39 18 93 22 120 3 28 8 59 10 70 5 23 13 64 21 115 3 19 12 63 19 96 36 156
39 429 10 759 -2 28 -7 82 -10 120 -3 39 -8 88 -11 110 -2 22 -6 60 -9 85 -2
25 -6 61 -9 80 -2 19 -8 58 -11 85 -4 28 -17 77 -30 110 -13 33 -38 105 -55
160 -75 234 -114 332 -221 552 -102 208 -160 310 -250 444 -77 114 -184 255
-219 289 -3 3 -38 42 -79 88 -97 109 -220 229 -326 317 -33 28 -62 52 -65 55
-3 3 -25 18 -50 34 -25 16 -78 63 -118 104 -40 42 -82 77 -94 79 -11 2 -41 18
-67 37 -25 18 -95 59 -156 90 -60 31 -128 68 -150 81 -56 34 -261 135 -285
139 -3 1 -10 4 -15 8 -25 16 -295 113 -306 110 -4 0 -42 10 -85 24 -44 14 -88
27 -99 30 -11 2 -31 6 -45 9 -65 14 -96 19 -177 30 -21 3 -49 7 -63 10 -30 5
-102 16 -150 21 -19 2 -51 6 -70 8 -83 11 -415 26 -423 20z m258 -758 c61 -4
121 -9 135 -10 93 -13 132 -19 204 -32 125 -24 375 -94 441 -124 11 -5 42 -16
69 -25 74 -24 145 -56 198 -88 26 -15 58 -29 72 -31 14 -1 44 -16 68 -31 24
-16 48 -30 55 -31 31 -5 109 -53 174 -106 39 -32 96 -69 125 -83 30 -14 61
-36 69 -49 8 -12 34 -28 56 -35 41 -12 136 -99 234 -212 115 -132 277 -357
342 -474 40 -70 143 -285 143 -296 0 -6 14 -33 31 -59 17 -27 30 -50 28 -52
-1 -2 3 -12 9 -24 11 -21 80 -241 88 -279 2 -11 17 -67 33 -125 40 -146 52
-224 65 -425 8 -118 19 -344 19 -385 1 -53 -11 -234 -17 -270 -3 -14 -7 -45
-10 -70 -4 -25 -8 -57 -11 -72 -5 -27 -8 -42 -21 -105 -3 -16 -14 -64 -26
-108 -11 -44 -21 -84 -22 -90 -17 -70 -72 -219 -117 -313 -16 -34 -29 -64 -29
-67 0 -8 -163 -322 -197 -380 -34 -57 -105 -167 -113 -175 -3 -3 -24 -27 -45
-55 -92 -116 -282 -310 -390 -400 -33 -28 -61 -53 -63 -57 -2 -5 -8 -8 -14 -8
-5 0 -15 -6 -22 -13 -7 -6 -30 -25 -51 -42 -21 -16 -47 -38 -57 -48 -11 -11
-81 -55 -156 -100 -76 -44 -139 -83 -142 -88 -19 -28 -355 -184 -418 -194 -20
-3 -62 -13 -92 -22 -30 -9 -59 -17 -65 -19 -5 -1 -46 -12 -90 -23 -44 -12 -91
-24 -104 -27 -12 -3 -51 -11 -85 -19 -88 -20 -158 -28 -361 -41 -283 -19 -785
-1 -861 31 -18 7 -58 16 -89 19 -32 3 -65 12 -74 19 -19 16 -86 43 -139 56
-44 11 -187 55 -222 69 -14 5 -28 10 -32 12 -25 6 -218 99 -243 116 -108 76
-135 94 -140 94 -3 0 -59 34 -123 76 -96 63 -145 104 -274 235 -86 87 -159
168 -163 179 -3 11 -10 20 -14 20 -5 0 -21 19 -36 42 -15 23 -32 47 -37 52 -5
6 -67 90 -138 186 -110 147 -222 334 -222 367 0 4 -3 13 -8 18 -12 14 -109
259 -131 330 -10 33 -19 73 -19 88 0 15 -8 44 -19 65 -10 20 -22 53 -27 72 -4
19 -8 37 -9 40 -1 3 -5 30 -10 60 -5 30 -10 60 -11 65 -1 6 -3 12 -4 15 -3 9
-18 126 -25 200 -37 367 -37 462 0 696 3 17 8 56 11 85 9 95 34 206 76 337 22
70 44 132 48 137 4 6 13 28 20 50 13 40 78 188 142 325 38 81 52 116 53 140 1
47 197 319 374 520 101 114 253 261 341 330 25 19 51 41 59 48 8 7 26 21 40
30 14 9 31 20 36 25 22 16 83 53 129 77 27 14 60 40 74 59 33 42 85 75 148 94
55 16 58 17 78 17 8 0 27 11 43 24 15 13 44 27 63 31 19 4 86 31 149 61 68 32
146 61 190 70 42 9 80 19 86 22 5 4 15 7 21 8 6 1 27 9 45 17 57 25 72 29 119
33 25 2 59 6 75 9 17 3 100 8 185 11 85 4 156 7 157 8 4 3 272 -2 368 -8z"/>
<path d="M3867 6674 c-1 -1 -45 -5 -97 -8 -194 -13 -256 -22 -389 -55 -47 -11
-88 -18 -92 -15 -4 2 -41 -7 -81 -21 -40 -14 -98 -28 -127 -31 -30 -3 -66 -13
-80 -23 -15 -10 -47 -21 -74 -24 -60 -8 -110 -34 -177 -91 -30 -26 -59 -46
-64 -47 -67 -4 -196 -76 -196 -108 0 -7 -95 -71 -106 -71 -9 0 -157 -101 -204
-139 -60 -48 -116 -108 -146 -153 -13 -21 -28 -38 -33 -38 -10 0 -87 -74 -125
-120 -35 -43 -116 -137 -178 -206 -55 -62 -65 -80 -73 -125 -3 -19 -19 -47
-34 -64 -30 -33 -77 -98 -73 -102 1 -2 2 -4 1 -5 -1 -5 -8 -32 -12 -53 -7 -31
-88 -192 -130 -260 -20 -33 -41 -82 -47 -110 -6 -27 -13 -61 -15 -75 -9 -41
-24 -123 -30 -155 -13 -76 -17 -93 -32 -145 -38 -129 -42 -168 -47 -470 -5
-279 5 -364 75 -655 33 -134 34 -136 84 -290 31 -94 105 -249 174 -367 11 -18
29 -51 41 -73 12 -22 51 -83 86 -136 35 -53 64 -99 64 -104 0 -10 80 -120 120
-165 18 -19 82 -87 143 -150 62 -63 127 -134 145 -156 28 -37 58 -57 163 -111
15 -7 32 -20 39 -28 7 -8 17 -15 23 -15 9 0 155 -106 167 -121 26 -34 114 -92
158 -104 29 -9 104 -38 165 -64 120 -52 204 -80 284 -95 18 -3 42 -10 55 -15
13 -5 26 -9 30 -10 4 -1 13 -3 20 -6 64 -20 92 -27 111 -30 12 -2 31 -5 42 -8
19 -4 83 -16 135 -24 90 -14 147 -17 325 -17 223 1 349 7 539 28 145 16 287
52 376 95 41 19 80 36 85 36 25 2 91 17 100 23 5 4 12 7 15 7 19 3 59 21 83
37 15 11 66 40 115 65 315 164 405 227 602 423 85 85 180 184 210 219 30 35
60 69 65 75 19 21 60 72 80 100 11 15 34 47 51 70 17 22 34 48 37 56 4 8 27
47 52 85 47 75 177 331 218 430 75 179 116 343 133 530 4 33 13 94 21 135 22
109 22 382 -2 660 -8 95 -17 147 -41 228 -13 46 -24 93 -24 103 0 10 -9 42
-20 71 -11 29 -22 71 -26 93 -6 38 -18 70 -48 125 -7 14 -21 50 -31 80 -19 63
-92 216 -162 341 -26 47 -81 146 -121 220 -44 80 -85 142 -102 154 -15 11 -98
89 -184 172 -86 84 -156 151 -156 149 0 -1 -27 22 -60 53 -33 31 -90 75 -128
99 -37 24 -111 72 -165 107 -53 35 -125 74 -158 87 -33 13 -83 42 -111 65 -35
29 -68 46 -102 53 -28 6 -103 28 -166 50 -63 22 -130 42 -148 45 -18 3 -64 12
-102 20 -38 8 -82 17 -97 19 -67 11 -110 17 -143 21 -19 2 -51 7 -70 10 -96
14 -136 17 -263 19 -75 2 -138 2 -140 0z m164 -188 c1 -76 3 -105 13 -206 9
-87 15 -130 21 -160 3 -14 7 -35 9 -47 3 -13 8 -28 11 -34 11 -17 7 -192 -4
-222 -6 -15 -9 -27 -6 -27 6 0 -31 -102 -54 -148 -24 -47 -52 -55 -68 -19 -5
12 -8 35 -6 51 7 51 -75 142 -97 107 -4 -8 -5 -25 -1 -40 9 -32 -3 -84 -24
-101 -38 -32 -105 45 -145 166 -15 45 -31 71 -58 94 -48 41 -135 93 -192 116
-52 21 -64 32 -110 97 -18 26 -37 47 -42 47 -5 0 -13 10 -18 23 -6 17 -4 26
11 39 19 16 24 16 82 -6 75 -29 287 -135 305 -152 6 -7 12 -16 12 -21 0 -4 25
-32 55 -61 33 -32 58 -66 64 -87 12 -46 31 -63 80 -74 38 -8 42 -7 46 13 3 11
4 129 3 261 -2 252 0 287 34 400 37 122 77 118 79 -9z m1120 -168 c3 -30 -4
-57 -29 -110 -15 -32 -30 -58 -34 -58 -5 0 -8 -4 -8 -10 0 -16 -84 -97 -108
-104 -45 -15 -56 16 -37 104 20 95 115 188 193 190 12 0 23 -6 23 -12z m-1526
-24 c8 -4 22 -19 31 -35 13 -26 112 -99 133 -99 12 0 81 -78 82 -93 0 -6 3
-24 5 -39 3 -16 -2 -32 -11 -42 -18 -17 -18 -17 -117 51 -57 39 -70 50 -162
129 -78 67 -90 95 -41 101 17 2 37 11 45 19 17 16 14 16 35 8z m-585 -49 c36
-25 84 -55 107 -66 24 -11 43 -24 43 -28 0 -4 8 -16 18 -27 34 -36 98 -187
108 -254 3 -19 7 -39 7 -44 5 -27 -35 -11 -78 31 -28 27 -62 54 -77 60 -15 7
-38 30 -52 51 -36 58 -141 142 -177 142 -9 0 -21 -35 -24 -73 -2 -15 -6 -31
-9 -35 -17 -17 -136 78 -136 109 0 5 -16 32 -35 60 -48 70 -40 83 49 81 30 -1
46 -8 68 -32 33 -37 49 -31 46 16 -4 69 52 72 142 9z m1433 -54 c-21 -20 -74
-59 -118 -86 -44 -26 -99 -65 -122 -86 -47 -43 -67 -48 -83 -20 -29 55 98 193
193 208 54 8 149 31 155 38 4 3 8 1 10 -5 2 -6 -13 -28 -35 -49z m222 17 c3
-3 -25 -30 -62 -61 -37 -30 -95 -80 -127 -111 -33 -31 -63 -56 -68 -56 -4 0
-8 -4 -8 -8 0 -5 -12 -14 -27 -21 -31 -14 -48 -2 -39 26 7 21 105 122 146 150
14 9 27 20 30 24 3 4 31 21 62 37 53 28 79 34 93 20z m193 -32 c-10 -86 -116
-254 -251 -400 -49 -52 -56 -56 -65 -40 -12 24 -8 110 7 149 26 65 123 194
188 251 37 32 74 65 81 71 7 7 20 13 29 13 13 0 15 -9 11 -44z m592 -14 l45
-19 -70 -32 c-100 -46 -119 -55 -125 -62 -14 -15 -192 -99 -241 -113 -42 -13
-66 -28 -101 -64 -50 -52 -65 -61 -152 -93 -43 -16 -63 -29 -75 -51 -63 -115
-159 -218 -270 -288 -43 -28 -74 -55 -80 -71 -5 -14 -20 -38 -34 -53 -14 -15
-23 -34 -20 -41 6 -18 -37 -139 -71 -196 -58 -99 -80 -157 -68 -176 6 -10 25
-2 72 29 82 53 226 120 248 116 18 -4 16 -7 -69 -84 -104 -94 -115 -99 -202
-99 l-82 0 -23 -35 c-24 -37 -78 -68 -115 -66 -38 2 -47 39 -42 186 5 165 11
219 36 290 11 30 21 64 23 75 10 70 97 144 121 105 16 -26 17 -111 1 -150 -19
-48 -19 -50 -5 -50 28 0 204 214 214 261 11 49 199 213 255 224 37 7 91 55
110 99 10 22 27 50 37 61 37 37 83 75 92 75 5 0 14 6 20 14 15 18 74 46 109
52 29 5 77 36 132 85 118 106 205 125 330 71z m-2891 -36 c68 -15 141 -84 122
-114 -13 -21 -128 -15 -157 9 -8 6 -20 23 -27 38 -8 18 -21 27 -42 29 -38 4
-52 17 -36 35 11 14 84 16 140 3z m1724 -138 c-3 -13 -26 -66 -50 -118 -25
-52 -49 -120 -55 -150 -6 -30 -19 -75 -30 -100 -12 -25 -26 -67 -32 -95 -9
-40 -16 -51 -34 -53 -18 -3 -26 4 -38 33 -8 20 -16 51 -17 68 -2 41 74 273
109 333 46 79 161 143 147 82z m-1251 -14 c33 -17 39 -26 28 -43 -6 -10 -20
-12 -53 -7 -37 6 -46 11 -51 32 -12 47 9 52 76 18z m428 -52 c53 -41 114 -107
138 -152 12 -22 32 -59 45 -81 12 -23 37 -57 55 -76 37 -40 38 -43 13 -43 -11
0 -27 -10 -35 -22 -15 -21 -16 -21 -53 -4 -38 17 -147 121 -193 185 -14 19
-34 46 -45 60 -43 54 -81 166 -65 186 9 11 20 10 58 -6 26 -11 63 -32 82 -47z
m-585 5 c86 -32 102 -37 160 -48 85 -15 106 -34 113 -97 6 -66 -7 -83 -62 -81
-43 2 -82 18 -118 47 -126 103 -218 187 -218 199 0 9 83 -5 125 -20z m2707 -9
c54 -37 62 -51 47 -80 -6 -11 -8 -26 -5 -33 8 -22 -10 -27 -55 -15 -117 32
-299 47 -299 25 0 -5 25 -19 55 -30 30 -11 68 -31 85 -43 62 -46 108 -146 74
-159 -15 -6 -84 26 -84 38 0 8 -140 78 -172 86 -47 11 -126 15 -131 6 -3 -5
-8 -21 -11 -35 -10 -58 -20 -65 -88 -61 -111 6 -158 1 -158 -17 0 -4 15 -15
34 -24 69 -33 67 -65 -5 -72 -79 -8 -189 -54 -189 -80 0 -6 -7 -14 -15 -18
-19 -7 -30 32 -22 80 8 46 89 122 217 205 66 43 103 73 111 92 12 29 53 56 98
63 14 3 78 23 141 45 134 46 183 56 265 58 52 1 66 -3 107 -31z m-1107 14 c12
-8 12 -15 0 -102 -5 -36 -9 -72 -10 -80 -2 -33 -20 -68 -64 -128 -25 -35 -46
-67 -47 -70 -4 -36 -92 -148 -105 -135 -12 12 -19 64 -23 182 l-4 105 41 45
c79 84 188 191 195 191 4 0 12 -4 17 -8z m-1768 -63 c83 -44 76 -83 -21 -133
-31 -16 -73 -44 -93 -62 -19 -17 -57 -39 -82 -47 -40 -13 -50 -13 -74 0 -31
16 -31 18 26 79 28 31 29 32 12 65 -17 33 -17 33 11 57 75 62 154 77 221 41z
m-337 -8 c12 -23 13 -111 1 -129 -13 -21 -66 -25 -81 -7 -11 13 -11 25 -2 61
22 83 59 117 82 75z m490 -151 c3 -1 8 -2 12 -1 4 0 29 -9 55 -20 26 -12 65
-21 85 -21 51 1 41 -19 -25 -48 -29 -13 -88 -41 -132 -62 -92 -45 -108 -43
-150 20 -22 33 -24 43 -15 66 14 37 29 50 70 62 30 8 85 11 100 4z m430 -26
c0 15 184 -89 221 -126 54 -52 87 -117 67 -129 -32 -21 -157 13 -216 58 -36
27 -115 142 -124 180 -7 25 9 35 35 21 9 -5 17 -7 17 -4z m2012 -73 c16 -18
87 -215 93 -256 4 -27 37 -85 68 -119 86 -93 77 -304 -15 -352 -56 -29 -260
-20 -272 11 -12 31 85 113 138 117 36 3 33 14 -14 38 -53 27 -88 25 -137 -7
-36 -23 -115 -125 -116 -150 -1 -9 -4 -13 -46 -64 -17 -20 -36 -36 -43 -37 -7
-1 -31 -4 -53 -7 -22 -4 -47 -7 -55 -9 -8 -1 -19 -4 -25 -7 -5 -4 -22 -9 -36
-13 -33 -7 -44 -34 -24 -56 23 -26 93 -16 186 26 44 19 87 33 95 30 11 -4 13
-19 8 -68 -8 -95 -38 -116 -117 -83 -38 16 -132 21 -141 7 -3 -4 22 -23 55
-41 50 -27 71 -33 119 -32 33 0 62 -4 65 -9 15 -25 14 -63 -3 -98 -10 -20 -17
-43 -16 -49 1 -7 2 -17 3 -23 2 -17 41 -11 70 9 16 12 41 50 60 93 18 40 37
82 42 93 23 52 37 107 33 130 -6 34 21 90 51 103 13 6 58 10 100 8 81 -3 124
-23 135 -62 3 -10 17 -39 32 -64 27 -45 33 -67 43 -145 14 -108 64 -242 123
-327 72 -105 80 -132 49 -168 -14 -17 -21 -18 -49 -8 -18 6 -48 21 -66 34 -44
29 -88 25 -175 -16 -55 -26 -70 -30 -82 -20 -17 14 -17 63 0 100 6 14 11 39
11 55 -1 24 -5 29 -21 27 -39 -7 -63 -31 -99 -104 -20 -40 -49 -95 -66 -123
-16 -27 -38 -77 -49 -110 -11 -33 -35 -96 -55 -140 -32 -74 -43 -111 -45 -157
-1 -26 -28 -22 -37 5 -10 28 -11 34 -19 82 -12 76 -19 81 -59 38 -17 -18 -34
-26 -55 -25 -44 1 -49 7 -56 60 -9 65 -34 125 -62 146 -25 18 -40 21 -88 12
-16 -2 -33 -5 -37 -5 -17 -2 -6 -29 42 -110 28 -46 52 -93 53 -105 2 -18 -3
-21 -41 -22 -33 -1 -53 6 -90 32 -52 38 -72 27 -26 -13 16 -14 34 -28 40 -31
5 -4 23 -24 38 -45 l28 -37 109 6 c123 6 162 -5 191 -54 19 -32 13 -47 -25
-61 -25 -10 -37 -35 -19 -43 12 -4 82 -121 82 -136 0 -6 -6 -13 -12 -13 -7 -1
-20 -2 -28 -3 -18 -2 -79 30 -100 53 -32 33 -110 79 -110 65 0 -3 14 -25 30
-49 38 -56 78 -86 157 -120 64 -28 72 -37 80 -95 3 -19 11 -46 17 -58 12 -22
14 -23 29 -7 10 10 17 33 18 58 5 240 7 252 41 254 12 1 33 11 48 21 26 19 26
19 54 -3 16 -13 61 -33 100 -45 82 -26 120 -50 140 -88 12 -23 70 -100 131
-174 44 -54 45 -88 3 -123 l-32 -27 -17 23 c-10 13 -16 25 -14 28 2 2 -2 15
-9 30 -8 14 -16 41 -19 60 -3 19 -12 38 -19 42 -7 5 -10 9 -6 9 10 0 -34 43
-70 68 -43 31 -45 16 -6 -41 36 -52 41 -89 13 -95 -9 -2 -24 4 -33 13 -28 29
-96 29 -96 1 0 -7 16 -30 36 -52 19 -21 39 -47 45 -56 14 -26 -23 -32 -79 -14
-62 21 -144 26 -173 11 -22 -12 -22 -13 -2 -23 11 -6 23 -9 26 -6 16 16 224
-72 262 -109 27 -28 48 -178 25 -192 -22 -13 -68 27 -81 72 -11 43 -92 143
-105 131 -3 -4 6 -31 20 -62 14 -30 28 -67 30 -81 4 -22 2 -25 -18 -21 -34 6
-96 47 -145 96 -26 26 -48 40 -57 36 -16 -6 -59 17 -82 44 -21 24 -54 99 -48
109 9 13 -18 31 -33 22 -7 -5 -12 -17 -11 -27 4 -39 -1 -63 -16 -79 -15 -15
-18 -15 -34 0 -10 9 -20 26 -23 38 -24 100 -49 192 -55 204 -6 10 -14 -5 -26
-49 -9 -35 -24 -72 -32 -82 -14 -20 -14 -20 -28 0 -8 10 -18 33 -22 49 -3 17
-9 37 -11 45 -2 8 -4 61 -4 117 1 82 -2 105 -16 118 -16 16 -18 16 -30 -1 -7
-10 -13 -23 -13 -30 0 -17 -24 -34 -36 -26 -12 7 -29 52 -26 65 1 4 -2 7 -7 7
-4 0 -8 29 -7 64 1 53 5 69 24 89 13 14 35 28 48 31 l25 7 -36 33 c-19 18 -36
38 -36 45 -3 25 -13 50 -62 149 -46 95 -53 95 -87 -1 -21 -59 -20 -80 3 -71
48 18 99 -181 75 -291 -5 -22 -14 -43 -21 -47 -13 -8 -47 21 -50 43 -2 8 -8
28 -14 44 -6 17 -17 61 -23 99 -13 81 -16 87 -35 80 -16 -7 -24 -36 -30 -118
-7 -92 -29 -100 -64 -21 -36 82 -44 199 -20 289 12 44 55 91 86 93 39 3 148
35 155 46 7 12 3 200 -7 268 -21 157 -30 199 -45 199 -23 0 -27 -123 -5 -177
15 -37 15 -44 2 -70 -30 -58 -75 -75 -127 -48 -42 22 -100 92 -101 123 -3 71
-7 102 -13 119 -7 17 -8 17 -18 -1 -6 -10 -12 -39 -14 -65 -7 -77 -14 -111
-24 -111 -6 0 -10 8 -11 18 0 9 -2 26 -5 37 -13 65 -3 449 13 492 17 44 123
142 176 162 42 16 52 -3 62 -114 11 -116 16 -128 42 -102 22 22 23 138 2 182
-22 44 -13 71 33 102 84 58 88 64 109 153 11 47 19 99 17 115 -3 33 -3 33
-129 22 -31 -2 -62 -1 -68 3 -14 8 87 113 129 135 58 30 205 40 234 16 12 -10
13 -18 5 -35 -21 -41 -63 -76 -97 -82 l-35 -7 29 -12 c44 -19 84 -9 120 27 49
51 51 71 9 115 -44 47 -45 67 -2 79 32 10 128 10 200 0 42 -6 45 1 27 66 -14
47 0 77 32 74 13 -2 52 -17 87 -35 60 -29 120 -41 122 -23 1 4 3 32 5 62 2 30
6 61 9 68 7 18 38 15 57 -7z m-142 -1 c43 -23 48 -80 7 -80 -43 0 -72 51 -45
78 15 15 15 15 38 2z m-2035 -45 c40 -10 165 -75 165 -86 0 -5 6 -9 13 -9 19
0 97 -78 108 -108 12 -31 -8 -51 -50 -53 -69 -3 -130 -7 -166 -13 -127 -19
-181 -12 -140 20 11 9 43 27 70 41 28 14 58 35 68 47 17 19 17 20 -1 27 -25
10 -98 -7 -140 -32 -41 -24 -54 -17 -49 24 2 18 -2 47 -9 66 -18 43 -18 43 7
69 21 23 48 25 124 7z m726 -68 c64 -81 86 -146 82 -247 -4 -88 -3 -85 -33
-110 l-27 -22 13 -75 c16 -91 12 -159 -10 -181 -38 -39 -99 40 -138 182 -23
80 -54 142 -76 151 -25 9 -23 0 7 -45 21 -32 28 -52 25 -76 -11 -87 -42 -106
-130 -78 -65 20 -94 46 -94 84 0 32 -17 53 -63 76 -30 16 -52 35 -75 66 -11
14 -10 20 7 37 26 26 90 28 174 6 66 -17 107 -19 107 -6 0 5 -13 21 -30 34
-37 32 -38 45 -2 53 15 4 33 11 40 17 10 8 14 5 19 -12 3 -14 25 -31 57 -47
28 -14 65 -41 83 -60 31 -33 56 -43 67 -26 3 5 -10 31 -29 59 -52 78 -67 120
-67 200 0 39 3 76 7 82 10 18 41 -4 86 -62z m-1209 34 c9 -11 15 -21 13 -23
-7 -7 60 -75 94 -96 44 -27 72 -14 97 42 18 39 37 66 47 66 10 0 19 -61 19
-123 1 -91 12 -120 55 -144 36 -20 55 -25 128 -38 87 -15 81 -8 180 -203 50
-101 96 -187 101 -192 5 -5 39 -10 76 -11 133 -4 153 -33 98 -140 -16 -33 -26
-59 -22 -59 9 0 102 -88 103 -98 0 -4 2 -16 5 -27 2 -11 6 -49 9 -85 11 -150
16 -198 24 -227 9 -30 39 -73 52 -73 4 0 15 24 25 53 9 28 30 80 45 115 16 34
26 62 22 62 -3 0 -1 6 6 13 18 22 23 114 7 150 -21 51 -74 106 -114 118 -45
13 -62 25 -86 63 -15 23 -16 30 -5 37 20 13 52 11 74 -5 11 -7 38 -19 59 -26
66 -21 95 -61 126 -172 22 -78 26 -180 10 -223 -6 -15 -12 -58 -14 -95 -6 -81
-10 -91 -76 -166 -28 -31 -50 -61 -50 -66 0 -19 -23 -5 -68 38 l-46 46 -18
-22 c-32 -39 -17 -94 32 -123 56 -33 94 -18 179 73 69 73 82 109 96 245 12
123 16 175 17 247 2 70 -1 81 -31 129 -18 29 -35 65 -38 81 -5 25 -3 28 18 27
40 -1 55 -12 101 -69 l43 -54 2 -216 c1 -118 0 -227 -3 -241 -3 -15 -22 -44
-41 -65 -86 -96 -123 -243 -74 -295 63 -68 102 -226 70 -286 l-13 -25 -27 34
c-33 40 -50 30 -55 -31 -4 -59 -13 -81 -33 -81 -20 0 -58 38 -60 60 0 8 -2 35
-4 60 -2 25 3 63 10 84 16 48 8 59 -18 26 -29 -38 -47 -108 -38 -150 4 -19 10
-50 12 -68 3 -18 13 -45 22 -58 16 -26 30 -74 21 -74 -3 0 -22 16 -41 36 -20
20 -39 33 -42 30 -3 -3 -5 -44 -4 -91 2 -67 -2 -95 -19 -132 -39 -89 -68 -103
-114 -54 -25 26 -29 38 -28 86 1 71 18 147 47 205 23 45 61 161 69 212 2 14
-1 33 -7 41 -18 23 -48 6 -82 -44 -51 -77 -56 -81 -70 -63 -16 23 -11 113 9
152 26 51 75 91 130 107 60 18 70 24 79 47 8 22 -18 37 -55 31 -14 -2 -52 -12
-84 -23 -94 -33 -98 -29 -64 67 29 82 27 94 -9 82 -35 -12 -87 -68 -106 -112
-8 -20 -13 -71 -13 -135 0 -57 -3 -107 -8 -112 -16 -14 -148 -80 -162 -80 -17
0 -9 29 28 95 34 60 35 65 19 76 -21 12 -46 -8 -75 -59 -44 -78 -68 -112 -79
-112 -15 0 -44 36 -51 65 -9 37 -24 30 -25 -12 -4 -103 13 -153 51 -153 29 0
42 -34 42 -118 1 -136 -47 -266 -86 -233 -33 28 -70 170 -55 216 5 15 -19 75
-29 75 -9 0 -16 19 -28 75 -3 11 -7 72 -9 135 -3 63 -7 124 -9 135 -3 11 -5
23 -5 27 -1 3 -15 5 -31 4 -33 -2 -51 11 -81 62 -46 79 -63 -10 -17 -94 28
-53 36 -98 19 -108 -11 -7 -60 55 -96 122 -45 84 -108 127 -111 76 -2 -45 -16
-64 -54 -75 -51 -15 -84 5 -101 60 -15 51 -5 99 29 144 40 52 84 69 173 65
l73 -3 43 -57 c43 -56 77 -70 67 -27 -2 10 -6 28 -9 40 -7 33 -162 293 -195
328 -61 64 -66 40 -21 -111 23 -78 15 -88 -49 -62 -69 28 -141 10 -238 -59
-51 -37 -63 -33 -105 35 l-28 45 18 44 c19 50 91 159 104 159 14 0 54 70 72
125 9 28 19 77 22 110 11 133 28 232 47 268 21 42 17 54 -33 102 -40 38 -60
85 -55 127 20 144 42 226 72 261 41 48 78 129 83 179 1 4 15 23 32 43 35 39
66 45 91 16z m1955 -88 c7 -20 -42 -63 -94 -83 -29 -11 -53 -16 -53 -10 0 13
122 110 134 107 6 -2 11 -8 13 -14z m-1205 -330 c19 -17 24 -43 9 -43 -5 0
-16 -3 -24 -6 -9 -3 -25 4 -37 16 -17 17 -19 24 -9 36 15 19 38 18 61 -3z
m1085 -9 c9 -28 -103 -76 -142 -60 -16 6 -17 9 -4 21 40 40 137 66 146 39z
m-1005 -149 c74 -25 112 -34 160 -39 33 -3 35 -5 38 -31 6 -51 -12 -61 -66
-39 -19 8 -56 17 -80 19 -51 4 -124 43 -147 78 -29 44 -7 47 95 12z m268 -572
c0 -6 3 -18 6 -26 3 -8 -2 -22 -11 -31 -23 -22 -41 -2 -39 44 3 79 2 78 24 50
11 -14 20 -30 20 -37z m1823 -441 c3 -16 26 -72 51 -124 50 -105 55 -128 29
-150 -45 -36 -130 -51 -151 -25 -12 14 8 65 29 78 15 9 18 43 6 51 -15 9 -64
-19 -117 -69 -25 -23 -57 -45 -71 -48 -23 -6 -28 -2 -37 24 -13 37 -22 38 -49
9 -30 -34 -43 -63 -48 -111 -7 -63 -11 -80 -35 -135 -28 -64 -47 -73 -56 -26
-8 44 7 202 25 262 1 1 1 4 1 7 1 19 56 125 87 165 45 58 67 72 113 70 19 0
45 -1 58 -1 13 -1 47 15 75 34 58 39 81 36 90 -11z m-1147 13 c7 -18 -41 -85
-62 -85 -7 0 -14 -4 -14 -8 0 -15 -29 -9 -45 8 -8 9 -16 27 -17 40 -3 22 3 26
57 41 76 22 75 22 81 4z m-366 -29 c11 -29 12 -247 0 -265 -10 -17 -22 4 -59
107 -31 86 -27 130 12 163 29 24 36 24 47 -5z m136 -75 c11 -33 7 -57 -23
-178 -6 -27 -18 -30 -27 -6 -14 34 -18 168 -7 196 15 38 43 32 57 -12z m-1485
-260 c8 0 23 -17 32 -36 12 -26 25 -36 56 -45 47 -12 73 -49 117 -165 33 -88
39 -117 37 -183 -1 -53 -19 -87 -76 -147 -37 -39 -67 -119 -72 -195 -5 -79
-12 -94 -40 -88 -33 6 -57 52 -57 106 1 64 -15 80 -51 52 -31 -24 -43 -25 -51
-4 -11 28 13 57 153 184 39 35 71 68 71 72 0 31 -83 -22 -191 -122 -9 -8 -35
-33 -59 -54 -23 -22 -53 -57 -67 -78 -13 -22 -29 -37 -36 -35 -43 15 59 234
180 385 24 30 43 57 43 61 0 4 -12 13 -26 20 -23 10 -25 17 -24 59 3 86 2 87
-59 98 -58 11 -111 57 -111 95 0 10 8 19 18 21 15 4 175 3 213 -1z m2807 -59
c28 -14 52 -31 52 -37 -1 -5 -44 -36 -97 -69 -87 -53 -97 -57 -119 -45 -61 32
-36 148 38 179 29 12 60 5 126 -28z m-1402 20 c15 -9 74 -127 74 -146 0 -54
139 -247 307 -425 29 -31 55 -63 58 -73 7 -19 87 -60 165 -83 93 -27 104 -35
112 -85 14 -80 24 -410 14 -495 -8 -70 -29 -181 -38 -198 -8 -16 -77 -52 -118
-63 -8 -2 -40 -10 -70 -18 -30 -8 -68 -17 -85 -20 -16 -3 -41 -8 -55 -11 -67
-13 -428 -37 -575 -38 -56 0 -169 9 -225 19 -14 2 -59 6 -100 9 -41 3 -91 8
-110 11 -44 7 -76 10 -220 19 -63 3 -116 8 -118 10 -2 2 -15 -1 -29 -6 l-26
-9 6 60 c4 34 8 64 11 68 9 14 19 124 31 332 16 273 21 287 116 319 65 22 99
45 99 68 0 13 -7 15 -72 17 -51 1 -67 19 -43 46 10 11 24 20 30 20 23 0 66 42
89 88 28 56 38 97 51 207 10 92 33 153 53 141 22 -13 44 -81 47 -144 4 -85
-14 -153 -69 -258 -60 -116 -43 -126 64 -42 26 20 50 29 90 32 64 6 161 51
209 98 19 18 49 67 68 108 19 41 58 106 87 145 73 98 104 154 110 200 5 37 34
105 46 105 3 0 10 -4 16 -8z m-695 -85 c25 -45 28 -76 10 -99 -54 -71 -101
-188 -101 -251 0 -55 -47 -147 -84 -165 -15 -8 -38 -11 -52 -8 -20 5 -24 13
-24 41 0 37 36 128 70 175 24 34 25 55 5 103 -25 60 -19 97 23 144 46 52 108
94 128 86 8 -3 19 -14 25 -26z m-881 -187 c10 -6 15 -25 14 -56 -1 -50 3 -45
-99 -128 -33 -26 -42 -54 -17 -49 32 7 24 -88 -11 -133 -41 -53 -21 -156 44
-232 20 -22 29 -43 28 -65 0 -29 -1 -30 -9 -10 -5 12 -38 45 -74 73 -101 79
-123 127 -92 201 8 19 22 75 31 124 20 108 82 235 130 265 35 23 35 23 55 10z
m1908 -64 c2 -9 -2 -23 -8 -31 -9 -11 -17 -12 -38 -2 -47 20 -56 52 -19 66 26
11 60 -7 65 -33z m155 -44 c9 -8 17 -19 17 -24 0 -22 -42 -98 -54 -98 -33 0
-64 94 -44 133 10 20 51 15 81 -11z m-1559 -217 c8 -17 18 -46 21 -65 3 -19
12 -41 20 -50 32 -36 16 -95 -30 -114 -29 -13 -92 -27 -120 -27 -19 0 -78 10
-83 15 -13 14 12 36 58 51 48 16 65 43 24 38 -36 -5 -64 7 -78 35 -22 43 5
107 83 195 l25 28 33 -38 c18 -21 39 -52 47 -68z m2474 -31 c34 -24 55 -70 42
-94 -29 -55 -87 7 -82 88 2 26 10 27 40 6z m162 -83 c28 -28 30 -37 17 -77 -7
-21 -59 -50 -87 -50 -24 1 -24 68 0 115 11 23 25 41 31 41 6 0 23 -13 39 -29z
m-3013 -48 c42 -69 56 -112 41 -130 -21 -26 -104 12 -130 60 -25 46 1 117 43
117 10 0 29 -20 46 -47z m2973 -132 c0 -5 -7 -14 -15 -21 -18 -15 -42 1 -31
19 8 13 46 15 46 2z m-617 -703 c14 -7 16 -13 7 -23 -12 -15 -123 -55 -150
-55 -10 0 -36 -14 -59 -30 -51 -37 -83 -50 -136 -56 -94 -10 -122 -15 -189
-33 -120 -33 -187 -43 -381 -57 -115 -8 -396 -9 -455 -1 -25 3 -81 9 -125 12
-44 4 -89 9 -100 11 -11 2 -49 7 -83 10 -35 3 -73 7 -84 9 -12 3 -53 7 -92 10
-128 11 -149 14 -201 29 -77 23 -112 59 -106 112 3 34 145 45 246 18 65 -18
153 -34 270 -49 52 -7 78 -10 185 -19 36 -3 90 -8 120 -11 45 -4 349 -17 385
-17 57 2 214 12 230 15 11 3 40 8 65 12 25 4 54 9 65 11 10 2 37 6 60 9 22 3
63 10 90 15 28 6 59 11 70 13 37 7 79 20 104 33 14 8 34 14 43 14 9 0 20 5 23
10 4 6 11 8 16 5 5 -4 16 -2 24 3 22 12 136 12 158 0z"/>
<path d="M4133 5098 c-11 -14 -39 -105 -48 -153 -11 -59 -14 -120 -6 -105 9
15 36 113 45 161 2 13 5 24 7 24 1 0 3 9 4 20 1 11 5 30 9 43 8 24 3 29 -11
10z"/>
<path d="M4827 5046 c-3 -7 -47 -34 -99 -60 -104 -51 -153 -89 -144 -111 8
-22 90 -11 129 17 51 36 157 140 157 155 0 17 -36 17 -43 -1z"/>
<path d="M4227 4638 c-21 -51 -22 -155 -1 -186 22 -34 62 -71 97 -88 41 -22
46 4 12 63 -55 95 -64 120 -61 158 5 42 -8 85 -24 85 -5 0 -16 -15 -23 -32z"/>
<path d="M4616 4204 c-9 -8 -16 -18 -17 -22 0 -4 -2 -16 -5 -27 -8 -37 -9
-170 -1 -182 14 -23 36 -1 57 55 29 78 36 155 15 176 -20 20 -29 20 -49 0z"/>
<path d="M3005 5120 c-6 -10 9 -27 61 -71 17 -14 45 -45 62 -68 17 -23 51 -60
76 -82 25 -22 54 -55 65 -73 22 -36 56 -52 65 -31 4 11 -27 51 -111 144 -18
20 -49 63 -69 98 -20 34 -47 69 -60 78 -26 17 -80 20 -89 5z"/>
<path d="M2735 4959 c-22 -5 -68 -11 -102 -12 -34 -2 -65 -6 -69 -9 -23 -24
-8 -103 27 -143 18 -20 33 -70 44 -139 7 -50 40 -124 68 -154 20 -21 39 -32
107 -59 24 -10 69 -9 96 1 17 6 7 36 -12 36 -7 0 -18 9 -24 21 -12 22 -6 54 8
45 5 -3 28 15 51 40 24 24 51 45 60 45 43 4 84 -2 109 -14 27 -14 46 -13 70 6
9 7 8 17 -8 42 -27 43 -25 53 8 57 19 2 27 9 27 22 0 14 -28 34 -110 76 -60
31 -141 76 -179 99 -76 47 -110 55 -171 40z m5 -86 c16 3 108 -30 124 -45 11
-10 23 -18 27 -18 4 0 10 -14 14 -31 10 -43 -12 -62 -68 -62 -72 2 -164 54
-168 96 -5 49 21 83 50 68 9 -5 18 -9 21 -8z"/>
</g>
</svg>
